# xmcd CD database file
#
# Track frame offsets:
#	150
#	21055
#	51147
#	92398
#	128043
#	158674
#	185994
#	221930
#	242939
#
# Disc length: 3819 seconds
#
# Revision: 0
# Processed by: cddbd v1.5.2PL0 Copyright (c) Steve Scherf et al.
# Submitted via: CDex 1.51
#
DISCID=7a0ee909
DTITLE=Leon Greening - Cookin In Brooklyn
DYEAR=2011
DGENRE=Jazz
TTITLE0=Action
TTITLE1=Waterloo
TTITLE2=Exodus
TTITLE3=Know Not One
TTITLE4=Ruth
TTITLE5=The Summit
TTITLE6=I Want To Be Wanted
TTITLE7=Chasing Shadows
TTITLE8=Singapore
EXTD=YEAR: 2011
EXTT0=
EXTT1=
EXTT2=
EXTT3=
EXTT4=
EXTT5=
EXTT6=
EXTT7=
EXTT8=
PLAYORDER=
